<svg xmlns="http://www.w3.org/2000/svg" viewBox="0 0 585.92 207.51"><defs><style>.cls-1{fill:#fcfcfc;}</style></defs><g id="Layer_2" data-name="Layer 2"><g id="BACKGROUND"><path class="cls-1" d="M246.7,21.64v5.83h-8.54V53h-6.45V27.47h-.4c-2.58,0-5.16,0-7.74,0a2.6,2.6,0,0,1-.39,0V21.65H246.7Zm119,20.2,8.83,11.25H367a.56.56,0,0,1-.49-.24q-4-5.07-8-10.12a2.39,2.39,0,0,1-.13-.21l-.1,0V53h-6.3V21.61l.29,0c4,0,7.95,0,11.92,0a12.06,12.06,0,0,1,6.13,1.53,9.39,9.39,0,0,1,4.56,6.56,10,10,0,0,1-1.64,8,8.52,8.52,0,0,1-2.41,2.34,11.39,11.39,0,0,1-4.45,1.63l-.61.1S365.72,41.79,365.69,41.84ZM364.52,36a4,4,0,0,0,4.09-3.72,4.29,4.29,0,0,0-.6-3,2.18,2.18,0,0,0-.22-.31,3.16,3.16,0,0,0-.38-.44,4,4,0,0,0-.45-.37,3.78,3.78,0,0,0-.33-.22,4.34,4.34,0,0,0-.53-.26l-.38-.13-.4-.1-.21,0-.43,0-1.55,0c-1.55,0-3.1,0-4.66,0h-.06l-.17,0h0v8.64h2c.92,0,1.84,0,2.76,0C363.53,36.07,364,36.06,364.52,36Zm61,9A7.6,7.6,0,0,1,422.77,47a9.72,9.72,0,0,1-5.2.58,7.66,7.66,0,0,1-5.17-2.86A11.84,11.84,0,0,1,410,36.89a12,12,0,0,1,.9-4.3,8.25,8.25,0,0,1,4.47-4.83,9.86,9.86,0,0,1,4.84-.65,7.79,7.79,0,0,1,5.63,2.95.53.53,0,0,0,.46.22h7c-.23-.52-.41-1-.65-1.47A13.46,13.46,0,0,0,424.84,22a18.26,18.26,0,0,0-9.07-.61,13.47,13.47,0,0,0-9.71,6.49A18.15,18.15,0,0,0,403.55,39a18.61,18.61,0,0,0,1.38,5.74,13.6,13.6,0,0,0,8.3,8,18.38,18.38,0,0,0,9.16.65A13.59,13.59,0,0,0,433,45.2l.13-.29h-7.32A.44.44,0,0,0,425.55,45.05ZM323.17,22.21c.22-.4.09-.62-.36-.62H300.64a.5.5,0,0,0-.49.28c-1,1.75-2,3.49-3,5.23a2.2,2.2,0,0,0-.14.3h16.13c-.09.16-.14.27-.2.37q-6.92,12.31-13.84,24.64-.36.63.36.63H323V47.21H309l.21-.38Zm-40.35,25,.22-.38,14-24.59c.25-.44.13-.64-.38-.64H274.21v5.8H287l-.19.37L273,52.42c-.22.38-.09.61.34.61h22.26a.44.44,0,0,0,.44-.25c1-1.78,2-3.54,2.93-5.32.05-.07.08-.16.14-.27Zm122,4.78q-7-15.24-14.08-30.49c-.08-.16-.14-.29-.37-.29s-.29.16-.36.31L376,51.83,375.51,53l.21,0h6.61c.22,0,.28-.11.35-.27l3.12-7.44c1-2.49,2.07-5,3.11-7.48l1.45-3.48h.08c.07.15.15.29.21.44q3.75,9,7.49,18a.37.37,0,0,0,.4.28h6.7C405.1,52.61,405,52.29,404.84,52Zm52-30.34h-23c-.25,0-.31.08-.31.31,0,1.75,0,3.5,0,5.24,0,.27.07.35.35.35H442V53h6.46V27.53H457V21.65ZM249.71,47.25V53h21.35V47.25Zm0-25.58v5.77h21.36V21.67Zm0,13V40.4H271V34.63Zm77.46-13v5.68h21.35V21.66Zm0,25.74V53h21.35V47.4Zm0-12.65V40.3h21.24V34.75Zm31.07-7.34.17,0-.17,0Zm4.89,0,1.55,0,.43,0-.43,0Zm3.5.6a5.2,5.2,0,0,0-.53-.26A4.34,4.34,0,0,1,366.63,28Zm.78.59a4,4,0,0,0-.45-.37A4,4,0,0,1,367.41,28.58Z"/><path class="cls-1" d="M19.87,151.41,0,139.94v10.6l11.51,6.64v11.87l9.18,4.78v-21A1.63,1.63,0,0,0,19.87,151.41Z"/><path class="cls-1" d="M88.78,53.41a1.64,1.64,0,0,0,.83-.22L136,26.66a1.62,1.62,0,0,0,.41-.32l5-2.88-9.16-5.33-10.73,6.14v.09L88.82,43.07,47.37,18.92l-8.75,5.53L88,53.18A1.65,1.65,0,0,0,88.78,53.41Z"/><path class="cls-1" d="M51.77,131.9,5.51,105.2A1.72,1.72,0,0,0,5,105l-5-2.9v10.6l10,5.77.73.41.07,0,32.62,18.83v48l9.18,4.78v-57.1A1.65,1.65,0,0,0,51.77,131.9Z"/><path class="cls-1" d="M89.13,16.94a1.7,1.7,0,0,0,.82-.21l19.9-11.4L100.69,0,89.16,6.6,78.9.62,70.16,6.15,88.3,16.72A1.64,1.64,0,0,0,89.13,16.94Z"/><path class="cls-1" d="M139.09,67.21l37-21.19a1.65,1.65,0,0,0,0-2.86l-6.69-3.9-7.59,4.31,0,0-30.5,17.46-7.1,4.06v.09L91.54,83.93,22.49,43.72l.1-.14-8.4-4.9-6.88,4a1.62,1.62,0,0,0-.84,1.42,1.65,1.65,0,0,0,.82,1.44L90.68,94.05a1.53,1.53,0,0,0,.83.23,1.58,1.58,0,0,0,.82-.22l46.36-26.53A1.61,1.61,0,0,0,139.09,67.21Z"/><path class="cls-1" d="M183.66,59.5a1.62,1.62,0,0,0-1.65,0L145.07,80.83a1.4,1.4,0,0,0-.48.18L98.34,107.72a1.64,1.64,0,0,0-.84,1.43v96.5a1.68,1.68,0,0,0,.83,1.44,1.75,1.75,0,0,0,.83.22,1.71,1.71,0,0,0,.82-.22l6.88-4V193.4l-.18,0V113.5l32.65-18.85.08,0,37.48-21.63h.05l7.55-4.4V60.93A1.65,1.65,0,0,0,183.66,59.5Z"/><path class="cls-1" d="M177,105l-46.25,26.7a1.67,1.67,0,0,0-.84,1.44v57.09l9.18-4.77v-48l32.65-18.85.08,0,10.68-6.17V101.9l-5,2.91A1.43,1.43,0,0,0,177,105Z"/><path class="cls-1" d="M161.79,152.63v21l9.18-4.78V157l11.51-6.64v-10.6L162.63,151.2A1.64,1.64,0,0,0,161.79,152.63Z"/><path class="cls-1" d="M86.16,107.93,39.9,81.22a1.66,1.66,0,0,0-.48-.19L2.48,59.7A1.66,1.66,0,0,0,0,61.13v7.74l7.54,4.4H7.6L38,90.78l7.15,4.14.08,0L77.8,113.71v79.9l-.17,0v9.73l6.87,4a1.66,1.66,0,0,0,.83.22A1.65,1.65,0,0,0,87,205.86v-96.5A1.65,1.65,0,0,0,86.16,107.93Z"/><path class="cls-1" d="M266.49,166.89a41.18,41.18,0,0,1-21.84-5.79,40.67,40.67,0,0,1-14.94-15.93,48.79,48.79,0,0,1-5.42-23.34,49.24,49.24,0,0,1,5.36-23.34,40.24,40.24,0,0,1,14.81-15.94,40.67,40.67,0,0,1,21.66-5.79,40.22,40.22,0,0,1,14.38,2.68,44.31,44.31,0,0,1,12.76,7.47,34.47,34.47,0,0,1,8.84,11l-6.6,4.1a29.57,29.57,0,0,0-7.28-9.4,36.75,36.75,0,0,0-10.4-6.34A31,31,0,0,0,266.12,84a31.91,31.91,0,0,0-17.49,4.86,33.59,33.59,0,0,0-12,13.38,42.45,42.45,0,0,0-4.36,19.61,43.1,43.1,0,0,0,4.36,19.79,32.45,32.45,0,0,0,29.87,18.3,28.79,28.79,0,0,0,11.83-2.55,36.43,36.43,0,0,0,10.4-7A33.11,33.11,0,0,0,296,140.13l6.6,4.11A39.13,39.13,0,0,1,293.69,156a42.16,42.16,0,0,1-12.76,8A38.24,38.24,0,0,1,266.49,166.89Zm70.59,0a30.07,30.07,0,0,1-15.87-4.17,29.32,29.32,0,0,1-10.84-11.51,35.46,35.46,0,0,1-3.92-16.93,35.88,35.88,0,0,1,3.86-16.93,28.77,28.77,0,0,1,10.77-11.52,32.06,32.06,0,0,1,31.62,0,28.77,28.77,0,0,1,10.77,11.52,35.88,35.88,0,0,1,3.86,16.93,35.91,35.91,0,0,1-3.86,16.93,28.94,28.94,0,0,1-10.71,11.51A29.52,29.52,0,0,1,337.08,166.89Zm0-6.84a21.27,21.27,0,0,0,11.82-3.3,22.76,22.76,0,0,0,8-9.09,32,32,0,0,0,0-26.77,22.43,22.43,0,0,0-8.15-9.08,21.92,21.92,0,0,0-11.95-3.3,21.6,21.6,0,0,0-11.89,3.3,22.58,22.58,0,0,0-8.09,9.08,29.33,29.33,0,0,0-2.93,13.39,28.8,28.8,0,0,0,3,13.38,22.9,22.9,0,0,0,8.22,9.09A21.9,21.9,0,0,0,337.08,160.05Zm38.46,5.35V103.15h7l.49,11.46V165.4Zm44.7-31.87q0-10.34-2.43-15.69t-6.6-7.28a22.21,22.21,0,0,0-9.4-1.93q-8.83,0-13.82,6.54t-5,18.24h-4.6a45.55,45.55,0,0,1,2.86-17.06,22.1,22.1,0,0,1,21.91-14.69,26.93,26.93,0,0,1,12.76,2.93,20.37,20.37,0,0,1,8.71,9.27q3.18,6.35,3.06,16.81v2.86Zm0,31.87V133.53h7.47V165.4Zm10.7-55.4v-6.85h38.34V110Zm29.38,56.89q-8.6,0-13.45-4.54T442,149.46V83.73h7.47v65.73c0,3.32.95,5.92,2.86,7.78s4.56,2.81,8,2.81a10,10,0,0,0,2.92-.44,17.57,17.57,0,0,0,4.17-2.3l3.12,6.47a22.14,22.14,0,0,1-5.6,2.55A18.71,18.71,0,0,1,460.32,166.89Zm43.44,0a30.12,30.12,0,0,1-15.87-4.17,29.37,29.37,0,0,1-10.83-11.51,35.46,35.46,0,0,1-3.92-16.93A35.88,35.88,0,0,1,477,117.35a28.59,28.59,0,0,1,26.14-15.69,25.54,25.54,0,0,1,15,4.3,27,27,0,0,1,9.4,11.82,43.62,43.62,0,0,1,3.24,17.37H477.62l2.87-2.37a34.31,34.31,0,0,0,2.86,14.69,21.14,21.14,0,0,0,8.15,9.34,23,23,0,0,0,12.26,3.24A20.81,20.81,0,0,0,516,156.5a24.9,24.9,0,0,0,7.9-9.15l6.23,3.86a29.59,29.59,0,0,1-6.17,8.15,27.42,27.42,0,0,1-8.9,5.54A30.88,30.88,0,0,1,503.76,166.89Zm-22.65-36.35L478,128.3h47.92l-3.11,2.37a26.11,26.11,0,0,0-2.43-11.58,18.11,18.11,0,0,0-17.24-10.58,22.26,22.26,0,0,0-11,2.8,21.33,21.33,0,0,0-8,7.72A21.65,21.65,0,0,0,481.11,130.54Zm56.64,34.86V78.26h7.47V165.4Zm19.42,0V78.26h7.47V165.4ZM581,87a5.09,5.09,0,0,1-5-5,4.71,4.71,0,0,1,1.49-3.55A4.91,4.91,0,0,1,581,77a4.89,4.89,0,0,1,5,5,4.87,4.87,0,0,1-1.43,3.49A4.71,4.71,0,0,1,581,87Zm-3.86,78.43V103.15h7.47V165.4Z"/></g></g></svg>